<svg width="6" height="6" viewBox="0 0 6 6" fill="none" xmlns="http://www.w3.org/2000/svg">
<path d="M5.625 2.20312C5.625 3.84375 3.19242 5.17172 3.08883 5.22656C3.06152 5.24125 3.031 5.24894 3 5.24894C2.969 5.24894 2.93848 5.24125 2.91117 5.22656C2.80758 5.17172 0.375 3.84375 0.375 2.20312C0.375434 1.81787 0.52867 1.44851 0.80109 1.17609C1.07351 0.90367 1.44287 0.750434 1.82812 0.75C2.31211 0.75 2.73586 0.958125 3 1.30992C3.26414 0.958125 3.68789 0.75 4.17188 0.75C4.55713 0.750434 4.92649 0.90367 5.19891 1.17609C5.47133 1.44851 5.62457 1.81787 5.625 2.20312Z" fill="#84D1FD"/>
</svg>
